<?xml version="1.0" encoding="UTF-8" standalone="no"?>
<!DOCTYPE svg PUBLIC "-//W3C//DTD SVG 1.1//EN" "http://www.w3.org/Graphics/SVG/1.1/DTD/svg11.dtd">
<svg xmlns="http://www.w3.org/2000/svg" version="1.1" viewBox="0.00 0.00 845.00 105.00">
<path fill="#000000" d="
  M 82.47 17.51
  L 77.84 17.51
  A 0.90 0.89 -3.7 0 0 76.95 18.51
  C 77.49 22.93 76.22 26.13 72.13 26.97
  C 62.86 28.86 71.31 39.45 75.25 32.78
  A 1.65 1.57 -27.5 0 0 75.47 32.14
  L 75.64 30.58
  A 1.40 1.39 73.2 0 1 76.13 29.66
  Q 78.75 27.47 79.29 26.77
  Q 80.89 24.69 80.97 22.03
  A 0.71 0.71 0.0 0 1 81.64 21.34
  C 86.55 21.03 90.81 20.87 95.23 23.04
  Q 104.99 27.83 108.49 38.54
  A 0.50 0.49 81.0 0 1 108.02 39.19
  L 105.31 39.19
  A 1.46 1.42 67.6 0 1 104.27 38.74
  C 101.51 35.84 97.54 36.28 96.49 40.38
  A 1.90 1.87 -48.2 0 0 96.54 41.44
  Q 97.74 44.85 100.89 44.66
  C 102.29 44.57 103.15 43.65 104.30 43.19
  A 2.96 2.89 34.3 0 1 105.49 42.98
  C 116.69 43.34 121.55 62.16 115.71 69.88
  C 112.57 74.04 108.49 77.00 103.28 75.48
  Q 98.60 74.11 96.73 69.12
  A 1.56 1.53 -44.5 0 1 96.75 68.02
  C 97.93 65.18 97.84 61.46 94.04 61.25
  C 90.18 61.05 87.78 67.54 92.53 68.77
  A 0.90 0.90 0.0 0 1 93.18 69.48
  Q 93.73 72.82 96.86 76.13
  A 0.37 0.37 0.0 0 1 96.59 76.76
  L 66.19 76.76
  A 0.51 0.51 0.0 0 0 65.68 77.27
  L 65.68 88.74
  A 0.64 0.64 0.0 0 1 65.06 89.38
  Q 61.79 89.53 60.58 87.80
  Q 57.77 83.77 57.61 77.40
  A 0.62 0.61 89.5 0 0 57.01 76.80
  Q 48.16 76.62 41.76 76.76
  C 33.14 76.95 27.86 70.08 30.89 61.85
  Q 32.31 58.01 36.91 56.34
  A 3.23 3.21 -55.2 0 1 37.94 56.15
  L 59.49 55.77
  A 0.97 0.96 83.1 0 1 60.45 56.53
  Q 60.97 58.99 61.54 59.52
  C 67.57 65.14 72.93 52.75 63.35 53.15
  A 2.29 2.26 55.3 0 1 62.35 52.96
  L 59.91 51.91
  A 0.89 0.89 0.0 0 1 59.37 51.09
  L 59.37 29.06
  A 0.77 0.76 -19.9 0 1 59.65 28.47
  L 63.79 25.03
  A 1.60 1.59 -64.5 0 1 64.85 24.65
  C 69.10 24.70 71.52 20.58 68.01 17.46
  A 2.09 2.05 -17.1 0 0 67.08 16.98
  Q 63.93 16.28 62.36 18.62
  C 61.71 19.60 61.95 20.69 61.67 21.76
  A 1.08 1.06 -12.4 0 1 61.33 22.28
  L 56.69 26.14
  A 2.92 2.90 70.3 0 0 55.64 28.38
  L 55.64 51.61
  A 0.53 0.53 0.0 0 1 55.11 52.14
  Q 47.93 52.06 37.72 52.25
  C 31.84 52.36 27.52 57.98 26.33 63.25
  A 0.77 0.76 5.7 0 1 25.59 63.85
  Q 20.73 63.86 15.69 63.85
  C 8.80 63.83 4.56 57.85 4.62 51.29
  Q 4.68 44.55 4.89 43.15
  A 2.90 2.88 -24.8 0 1 5.29 42.07
  Q 8.74 36.41 15.08 37.27
  A 0.71 0.71 0.0 0 1 15.69 38.04
  Q 15.19 43.51 18.30 46.79
  A 2.31 2.29 -68.3 0 1 18.93 48.27
  C 19.15 52.56 24.15 53.64 26.17 50.27
  C 28.05 47.15 24.24 45.14 22.00 44.23
  A 3.98 3.97 10.9 0 1 19.50 40.54
  L 19.50 34.22
  A 0.72 0.72 0.0 0 0 18.78 33.50
  L 12.64 33.50
  A 0.46 0.46 0.0 0 1 12.21 32.88
  C 13.50 29.44 18.15 21.97 22.48 21.72
  Q 27.61 21.43 30.76 21.63
  A 1.02 1.00 -11.5 0 1 31.59 22.17
  C 33.84 26.61 37.10 29.44 40.40 33.21
  A 1.86 1.81 77.1 0 0 41.22 33.74
  C 42.62 34.17 44.14 33.50 44.78 32.00
  Q 45.36 30.65 47.33 29.31
  C 49.53 27.82 50.06 26.27 50.17 24.00
  Q 50.36 20.41 50.06 14.93
  A 1.09 1.09 0.0 0 1 50.47 14.02
  C 53.02 11.99 56.75 9.31 59.96 8.99
  Q 61.52 8.84 63.96 8.80
  Q 74.78 8.63 82.78 16.76
  A 0.44 0.44 0.0 0 1 82.47 17.51
  Z
  M 89.43 51.50
  L 89.43 39.01
  A 1.84 1.79 61.3 0 1 89.69 38.07
  Q 90.74 36.34 90.83 36.10
  C 93.06 30.71 85.43 28.23 83.56 32.99
  Q 82.29 36.26 85.16 38.08
  A 1.12 1.11 16.4 0 1 85.68 39.02
  L 85.68 51.55
  A 0.34 0.33 90.0 0 1 85.35 51.89
  Q 76.27 52.02 75.45 60.72
  C 75.34 61.89 75.68 63.42 75.71 64.69
  A 0.72 0.72 0.0 0 1 74.99 65.43
  L 45.68 65.43
  A 1.02 1.01 -16.5 0 1 44.83 64.97
  Q 44.73 64.82 44.39 64.11
  C 41.98 59.12 34.64 64.12 38.18 68.45
  C 40.11 70.81 44.27 69.50 46.75 69.50
  Q 63.24 69.49 77.38 69.28
  A 2.71 2.70 1.4 0 0 80.05 66.74
  Q 80.16 64.82 79.68 62.31
  C 78.86 58.01 81.43 55.70 85.51 55.76
  Q 90.87 55.85 95.71 56.13
  Q 100.52 56.41 103.85 62.01
  A 1.62 1.58 -61.2 0 1 104.08 62.84
  L 104.08 64.60
  A 2.58 2.57 -85.1 0 0 106.21 67.14
  C 111.95 68.11 114.52 59.83 107.44 59.17
  A 1.56 1.54 75.0 0 1 106.33 58.52
  Q 100.76 50.47 90.18 52.14
  A 0.65 0.65 0.0 0 1 89.43 51.50
  Z
  M 34.40 38.56
  Q 33.47 36.17 31.37 36.06
  C 26.40 35.80 25.16 41.41 29.43 43.49
  A 1.20 1.15 -31.2 0 0 30.01 43.62
  L 41.45 43.26
  A 0.86 0.85 82.3 0 1 42.32 43.93
  C 43.56 49.43 51.39 47.53 49.57 41.84
  C 48.56 38.69 39.99 39.27 35.33 39.21
  A 1.02 1.01 79.6 0 1 34.40 38.56
  Z
  M 78.70 45.22
  A 3.82 3.82 0.0 0 0 74.88 41.40
  A 3.82 3.82 0.0 0 0 71.06 45.22
  A 3.82 3.82 0.0 0 0 74.88 49.04
  A 3.82 3.82 0.0 0 0 78.70 45.22
  Z"
/>
<path fill="#000000" d="
  M 259.29 36.41
  A 0.68 0.67 27.6 0 0 258.26 36.73
  L 237.03 96.71
  A 2.17 2.17 0.0 0 1 235.32 98.13
  Q 228.13 99.26 220.21 98.60
  C 217.13 98.34 216.83 96.75 217.83 93.97
  Q 233.25 50.91 246.29 15.53
  Q 248.15 10.50 253.83 10.59
  Q 262.72 10.73 268.45 11.09
  A 3.34 3.34 0.0 0 1 271.38 13.30
  Q 287.38 58.45 300.06 91.65
  Q 301.17 94.58 300.70 97.84
  A 0.95 0.95 0.0 0 1 299.77 98.66
  Q 294.85 98.70 284.75 98.68
  C 282.38 98.68 281.54 97.66 280.74 95.42
  Q 278.43 88.92 275.80 81.63
  A 1.08 1.07 -10.1 0 0 274.79 80.93
  L 254.83 80.93
  A 0.93 0.93 0.0 0 1 253.92 79.81
  L 256.86 65.52
  A 1.20 1.20 0.0 0 1 258.03 64.57
  L 268.55 64.57
  A 0.74 0.73 -9.7 0 0 269.25 63.59
  C 265.05 51.92 260.13 37.00 259.29 36.41
  Z"
/>
<path fill="#000000" d="
  M 381.84 94.30
  C 382.77 95.63 382.14 97.49 380.72 98.08
  Q 380.49 98.18 377.73 98.44
  C 372.83 98.91 365.95 99.44 361.60 97.17
  A 2.61 2.60 -4.1 0 1 360.66 96.36
  Q 343.65 72.61 335.24 56.81
  Q 333.29 53.13 335.93 49.07
  Q 346.51 32.82 359.38 13.15
  A 3.37 3.35 9.4 0 1 361.39 11.72
  Q 369.96 9.58 378.88 11.26
  A 2.00 1.95 68.9 0 1 379.73 11.65
  C 381.52 13.02 380.98 14.71 379.81 16.46
  Q 357.53 49.52 355.10 53.16
  A 2.72 2.72 0.0 0 0 355.13 56.20
  Q 357.42 59.51 381.84 94.30
  Z"
/>
<path fill="#000000" d="
  M 540.5834 69.9765
  A 28.92 28.92 0.0 0 1 511.6130 98.8460
  L 493.2530 98.8139
  A 28.92 28.92 0.0 0 1 464.3836 69.8435
  L 464.4366 39.4835
  A 28.92 28.92 0.0 0 1 493.4070 10.6140
  L 511.7670 10.6461
  A 28.92 28.92 0.0 0 1 540.6364 39.6165
  L 540.5834 69.9765
  Z
  M 521.8384 41.6145
  A 13.54 13.54 0.0 0 0 508.1340 28.2409
  L 496.4949 28.3831
  A 13.54 13.54 0.0 0 0 483.1213 42.0875
  L 483.4416 68.3055
  A 13.54 13.54 0.0 0 0 497.1460 81.6791
  L 508.7851 81.5369
  A 13.54 13.54 0.0 0 0 522.1587 67.8325
  L 521.8384 41.6145
  Z"
/>
<path fill="#000000" d="
  M 183.95 29.89
  Q 183.86 81.93 183.99 95.76
  Q 184.01 98.40 181.87 98.40
  Q 170.68 98.38 168.00 98.36
  C 165.89 98.34 165.50 96.96 165.50 95.03
  Q 165.48 64.70 165.51 29.98
  A 0.86 0.85 -0.0 0 0 164.65 29.13
  Q 153.73 29.11 142.22 29.14
  Q 138.11 29.15 138.08 25.83
  Q 138.01 17.65 138.16 13.69
  C 138.24 11.34 140.48 11.01 142.48 11.01
  Q 176.94 10.96 206.69 11.04
  Q 209.34 11.04 209.38 14.03
  Q 209.47 20.71 209.46 24.79
  C 209.45 28.08 208.39 29.17 205.05 29.14
  Q 194.98 29.05 184.68 29.15
  A 0.74 0.74 0.0 0 0 183.95 29.89
  Z"
/>
<rect fill="#000000" x="312.68" y="11.05" width="19.00" height="87.44" rx="2.60"/>
<path fill="#000000" d="
  M 412.03 46.11
  A 0.40 0.40 0.0 0 0 412.40 46.43
  Q 414.04 46.51 444.04 46.58
  C 446.83 46.58 448.65 47.14 448.69 50.22
  Q 448.74 53.48 448.65 62.06
  A 2.09 2.09 0.0 0 1 446.56 64.13
  L 412.53 64.01
  A 0.76 0.75 -84.2 0 0 411.79 64.62
  C 410.44 71.79 412.75 81.16 421.73 81.52
  Q 433.58 81.99 444.63 81.54
  Q 448.05 81.41 449.24 82.13
  C 452.96 84.43 452.08 92.27 451.37 96.09
  A 1.57 1.51 74.2 0 1 450.92 96.92
  Q 449.38 98.43 447.66 98.48
  Q 440.87 98.67 425.71 98.84
  C 408.32 99.03 394.88 94.50 393.97 74.55
  Q 393.43 62.58 393.71 40.10
  Q 393.81 32.96 394.90 28.08
  C 397.39 17.12 408.05 11.62 419.06 11.24
  Q 428.38 10.92 448.98 11.45
  A 2.71 2.70 -89.7 0 1 451.61 14.12
  Q 451.67 18.73 451.60 25.58
  Q 451.59 27.99 449.45 28.86
  A 1.95 1.95 0.0 0 1 448.71 29.01
  Q 429.72 29.20 420.21 29.44
  C 410.74 29.67 410.56 39.23 412.03 46.11
  Z"
/>
<path fill="#000000" d="
  M 589.73 71.44
  Q 590.53 71.44 591.34 68.80
  Q 599.65 41.90 608.56 12.86
  Q 609.11 11.06 612.02 11.06
  Q 623.67 11.07 625.16 11.04
  C 627.38 11.00 629.41 11.90 628.60 14.34
  Q 615.87 52.74 601.55 95.83
  Q 600.83 97.99 598.49 98.14
  Q 594.15 98.42 589.78 98.43
  Q 585.42 98.44 581.08 98.17
  Q 578.74 98.03 578.01 95.88
  Q 563.52 52.84 550.64 14.49
  C 549.82 12.06 551.85 11.15 554.07 11.18
  Q 555.56 11.20 567.21 11.15
  Q 570.12 11.14 570.67 12.93
  Q 579.70 41.94 588.11 68.81
  Q 588.93 71.45 589.73 71.44
  Z"
/>
<path fill="#000000" d="
  M 656.12 46.20
  A 0.40 0.40 0.0 0 0 656.49 46.52
  Q 658.14 46.60 688.17 46.56
  C 690.97 46.55 692.79 47.10 692.84 50.18
  Q 692.90 53.45 692.85 62.04
  A 2.09 2.09 0.0 0 1 690.76 64.12
  L 656.69 64.12
  A 0.77 0.75 -84.4 0 0 655.95 64.74
  C 654.63 71.92 656.97 81.29 665.97 81.62
  Q 677.83 82.05 688.89 81.56
  Q 692.32 81.41 693.51 82.13
  C 697.24 84.42 696.39 92.27 695.69 96.10
  A 1.57 1.52 74.0 0 1 695.25 96.93
  Q 693.71 98.45 691.99 98.51
  Q 685.19 98.72 670.01 98.95
  C 652.60 99.20 639.13 94.72 638.15 74.75
  Q 637.56 62.76 637.76 40.25
  Q 637.83 33.11 638.91 28.22
  C 641.36 17.23 652.01 11.69 663.03 11.27
  Q 672.36 10.91 692.99 11.37
  A 2.71 2.70 -89.9 0 1 695.63 14.03
  Q 695.71 18.65 695.67 25.50
  Q 695.66 27.92 693.53 28.80
  A 1.95 1.95 0.0 0 1 692.78 28.95
  Q 673.77 29.21 664.25 29.48
  C 654.77 29.75 654.63 39.32 656.12 46.20
  Z"
/>
<path fill="#000000" d="
  M 727.88 29.11
  A 0.48 0.48 0.0 0 0 727.43 29.58
  Q 727.43 36.26 727.43 95.00
  C 727.43 97.46 726.24 98.43 723.83 98.41
  Q 716.77 98.32 710.98 98.40
  Q 708.52 98.44 708.52 96.27
  Q 708.46 31.33 708.53 14.27
  C 708.54 11.77 709.41 11.53 711.76 11.41
  Q 727.45 10.64 746.75 11.15
  C 760.02 11.51 770.79 16.90 773.92 30.31
  Q 775.20 35.78 774.35 44.37
  C 773.31 55.00 767.10 59.50 758.70 64.54
  A 1.27 1.27 0.0 0 0 758.33 66.37
  Q 767.48 79.07 778.01 93.64
  C 780.54 97.14 776.54 98.59 773.75 98.62
  Q 766.48 98.68 759.60 98.49
  A 2.12 2.11 71.6 0 1 757.97 97.67
  Q 747.56 84.25 736.32 69.19
  C 733.85 65.88 732.19 62.50 733.24 58.68
  C 734.82 52.93 741.98 51.72 748.08 49.63
  C 757.28 46.48 759.92 30.54 747.55 29.46
  Q 737.59 28.60 727.88 29.11
  Z"
/>
<path fill="#000000" d="
  M 837.97 11.41
  C 839.34 11.45 840.45 12.60 840.48 14.00
  Q 840.53 16.62 840.49 27.19
  A 1.67 1.66 -0.5 0 1 838.86 28.84
  Q 833.12 28.98 816.84 29.06
  C 812.21 29.08 807.94 29.71 806.50 34.15
  C 805.03 38.71 808.23 43.40 812.43 44.89
  Q 822.89 48.61 826.79 50.18
  C 832.16 52.34 836.77 55.48 839.55 61.03
  C 841.90 65.73 841.55 74.07 841.15 78.97
  C 840.34 88.97 832.82 95.65 823.03 97.82
  Q 819.80 98.54 812.29 98.64
  C 804.51 98.74 795.72 98.71 789.32 98.27
  A 2.23 2.22 -89.0 0 1 787.24 96.11
  Q 787.05 90.39 787.28 84.88
  C 787.36 82.80 789.67 81.82 791.75 81.86
  Q 798.71 81.98 814.25 81.54
  C 818.60 81.42 822.96 80.18 823.52 75.23
  C 823.85 72.29 823.48 68.54 820.45 67.51
  Q 811.48 64.47 800.72 60.08
  Q 790.80 56.03 788.47 45.82
  C 784.13 26.83 793.19 11.94 813.50 11.41
  Q 825.68 11.10 837.97 11.41
  Z"
/>
<path fill="#000000" d="
  M 26.91 17.42
  Q 27.88 16.41 33.91 14.55
  Q 39.83 12.71 44.95 15.68
  A 2.96 2.96 0.0 0 1 46.42 18.37
  L 46.13 24.50
  A 2.10 2.01 62.2 0 1 45.89 25.34
  C 43.68 29.26 39.04 26.19 37.03 23.71
  Q 36.14 22.62 34.54 19.37
  A 2.80 2.78 76.8 0 0 32.04 17.81
  L 27.07 17.81
  A 0.23 0.23 0.0 0 1 26.91 17.42
  Z"
/>
<path fill="#000000" d="
  M 78.87 90.42
  A 0.44 0.44 0.0 0 0 78.59 91.11
  C 80.81 94.24 82.07 96.30 81.54 100.39
  A 0.69 0.69 0.0 0 1 80.86 100.99
  L 76.94 100.99
  A 0.79 0.79 0.0 0 1 76.16 100.33
  L 75.58 96.90
  A 1.57 1.56 18.2 0 0 75.14 96.04
  L 70.03 90.93
  A 0.51 0.51 0.0 0 1 69.87 90.56
  L 69.87 81.32
  A 0.65 0.64 -0.0 0 1 70.52 80.68
  L 102.50 80.68
  A 0.90 0.89 -12.4 0 1 103.31 81.19
  Q 103.83 82.31 102.55 84.02
  C 98.68 89.16 94.00 90.64 87.14 90.52
  Q 79.03 90.39 78.87 90.42
  Z"
/>
</svg>
