<?xml version="1.0" encoding="utf-8"?>
<!-- Generator: Adobe Illustrator 27.9.0, SVG Export Plug-In . SVG Version: 6.00 Build 0)  -->
<svg version="1.1" id="Camada_1" xmlns="http://www.w3.org/2000/svg" xmlns:xlink="http://www.w3.org/1999/xlink" x="0px" y="0px"
	 viewBox="0 0 512 223.06" style="enable-background:new 0 0 512 223.06;" xml:space="preserve">
<style type="text/css">
	.st0{fill:#E52327;}
</style>
<g>
	<path class="st0" d="M401.77,0.03c60.91,0.02,110.6,49.49,110.66,110.7c0.04,37.15,0.03,63.26-0.01,78.32
		c0,0.39-0.03,0.81-0.09,1.28c-0.05,0.44-0.07,0.87-0.06,1.29c0.19,8.33,0.22,18.72,0.08,31.15c-0.01,0.18-0.15,0.33-0.33,0.33
		h-38.36c-0.19,0-0.35-0.15-0.35-0.34c-0.02-0.67,0-6.23,0.04-16.7c0.03-6.63-0.26-11.8-0.86-15.52
		c-5.65-34.89-35.38-60.26-70.75-60.27c-35.38-0.01-65.13,25.35-70.79,60.24c-0.6,3.72-0.89,8.89-0.87,15.52
		c0.04,10.46,0.05,16.03,0.03,16.7c-0.01,0.19-0.16,0.34-0.35,0.34l-38.36-0.02c-0.18,0-0.33-0.14-0.33-0.33
		c-0.13-12.43-0.1-22.82,0.1-31.15c0.01-0.43-0.01-0.86-0.06-1.29c-0.06-0.47-0.09-0.9-0.09-1.28c-0.03-15.06-0.02-41.16,0.03-78.32
		C291.14,49.46,340.86,0.01,401.77,0.03 M401.7,91.04c26.1-0.02,51.26,9.18,71.22,25.96c0.17,0.14,0.42,0.02,0.42-0.2
		c-0.03-4.44,0.11-9.43-0.43-14.01c-1.43-12.19-5.45-23.03-12.07-32.51c-13.55-19.44-35.14-31.1-59.18-31.09
		c-24.04,0.02-45.61,11.71-59.14,31.17c-6.6,9.5-10.61,20.34-12.02,32.53c-0.53,4.58-0.38,9.57-0.4,14.01
		c-0.01,0.22,0.25,0.34,0.42,0.2C350.45,100.3,375.6,91.07,401.7,91.04L401.7,91.04z"/>
	<path class="st0" d="M39.6,111.37c-0.02,35.25,25.27,65.23,60.18,70.87c3.55,0.57,8.93,0.86,16.18,0.85
		c30.46-0.02,55.37-0.01,74.73,0.03c0.18,0,0.33,0.14,0.33,0.33v38.47c0,0.19-0.15,0.35-0.35,0.35c-50.8-0.02-77.35-0.03-79.64-0.05
		c-20.82-0.14-39.91-5.5-57.27-16.08c-33.13-20.19-53.3-55.91-53.29-94.8C0.48,72.45,20.7,36.75,53.85,16.61
		C71.22,6.04,90.32,0.7,111.13,0.58c2.29-0.01,28.83,0,79.64,0.03c0.19,0,0.35,0.16,0.35,0.36l-0.04,38.47
		c0,0.18-0.15,0.32-0.33,0.32c-19.36,0.02-44.26,0.01-74.73-0.04c-7.24-0.01-12.64,0.27-16.18,0.84
		C64.94,46.16,39.62,76.12,39.6,111.37L39.6,111.37z"/>
	<path class="st0" d="M261.76,221.95c0,0.2-0.17,0.37-0.37,0.37h-38.43c-0.2,0-0.37-0.17-0.37-0.37V1.29c0-0.2,0.17-0.37,0.37-0.37
		h38.43c0.2,0,0.37,0.17,0.37,0.37V221.95L261.76,221.95z"/>
</g>
</svg>
