<?xml version="1.0" encoding="UTF-8"?>
<svg id="Camada_2" data-name="Camada 2" xmlns="http://www.w3.org/2000/svg" viewBox="0 0 836.82 92.19">
  <defs>
    <style>
      .cls-1 {
        fill: #fff;
      }
    </style>
  </defs>
  <g id="Camada_1-2" data-name="Camada 1">
    <path class="cls-1" d="M77.85,8.71h-4.63c-.5,0-.9.4-.9.89,0,.04,0,.07,0,.11.54,4.42-.73,7.62-4.82,8.46-9.27,1.89-.82,12.48,3.12,5.81.12-.2.19-.42.22-.64l.17-1.56c.04-.36.21-.69.49-.92,1.75-1.46,2.8-2.42,3.16-2.89,1.07-1.39,1.63-2.97,1.68-4.74,0-.37.3-.67.67-.69,4.91-.31,9.17-.47,13.59,1.7,6.51,3.19,10.93,8.36,13.26,15.5.08.26-.06.54-.32.63-.05.02-.1.02-.15.02h-2.71c-.39,0-.77-.16-1.04-.45-2.76-2.9-6.73-2.46-7.78,1.64-.09.35-.07.72.05,1.06.8,2.27,2.25,3.35,4.35,3.22,1.4-.09,2.26-1.01,3.41-1.47.38-.15.78-.22,1.19-.21,11.2.36,16.06,19.18,10.22,26.9-3.14,4.16-7.22,7.12-12.43,5.6-3.12-.91-5.3-3.03-6.55-6.36-.13-.35-.12-.75.02-1.1,1.18-2.84,1.09-6.56-2.71-6.77-3.86-.2-6.26,6.29-1.51,7.52.34.09.59.37.65.71.37,2.23,1.59,4.44,3.68,6.65.14.15.14.38,0,.52-.07.07-.17.11-.27.11h-30.4c-.28,0-.51.23-.51.51v11.47c0,.35-.27.63-.62.64-2.18.1-3.67-.43-4.48-1.58-1.87-2.69-2.86-6.15-2.97-10.4-.01-.33-.27-.59-.6-.6-5.9-.12-10.98-.13-15.25-.04-8.62.19-13.9-6.68-10.87-14.91.95-2.56,2.95-4.4,6.02-5.51.33-.12.68-.18,1.03-.19l21.55-.38c.46,0,.86.31.96.76.35,1.64.71,2.64,1.09,2.99,6.03,5.62,11.39-6.77,1.81-6.37-.34.01-.68-.05-1-.19l-2.44-1.05c-.33-.14-.54-.46-.54-.82v-22.03c0-.23.1-.44.28-.59l4.14-3.44c.3-.25.67-.39,1.06-.38,4.25.05,6.67-4.07,3.16-7.19-.26-.24-.58-.4-.93-.48-2.1-.47-3.67.08-4.72,1.64-.65.98-.41,2.07-.69,3.14-.06.2-.18.38-.34.52l-4.64,3.86c-.66.55-1.05,1.37-1.05,2.24v23.23c0,.29-.24.53-.53.53-4.79-.05-10.58-.02-17.39.11-5.88.11-10.2,5.73-11.39,11-.07.35-.38.59-.74.6-3.24,0-6.54,0-9.9,0C4.18,55.03-.06,49.05,0,42.49c.04-4.49.13-7.21.27-8.14.06-.38.2-.75.4-1.08,2.3-3.77,5.56-5.37,9.79-4.8.38.05.65.39.61.77-.33,3.65.54,6.56,2.61,8.75.38.4.6.93.63,1.48.22,4.29,5.22,5.37,7.24,2,1.88-3.12-1.93-5.13-4.17-6.04-1.51-.61-2.5-2.07-2.5-3.69v-6.32c0-.4-.32-.72-.72-.72h-6.14c-.25,0-.46-.21-.46-.46,0-.05,0-.11.03-.16,1.29-3.44,5.94-10.91,10.27-11.16,3.42-.19,6.18-.22,8.28-.09.35.02.67.23.83.54,2.25,4.44,5.51,7.27,8.81,11.04.22.25.51.43.82.53,1.4.43,2.92-.24,3.56-1.74.39-.9,1.24-1.8,2.55-2.69,2.2-1.49,2.73-3.04,2.84-5.31.13-2.39.09-5.42-.11-9.07-.02-.35.13-.69.41-.91,2.55-2.03,6.28-4.71,9.49-5.03,1.04-.1,2.37-.16,4-.19,7.21-.11,13.49,2.54,18.82,7.96.17.17.17.45,0,.62-.08.08-.19.13-.31.13ZM84.81,42.7v-12.49c0-.33.09-.66.26-.94.7-1.15,1.08-1.81,1.14-1.97,2.23-5.39-5.4-7.87-7.27-3.11-.85,2.18-.31,3.88,1.6,5.09.32.21.52.56.52.94v12.53c0,.19-.15.34-.33.34h0c-6.05.09-9.35,3.03-9.9,8.83-.11,1.17.23,2.7.26,3.97.01.4-.3.73-.7.74,0,0-.01,0-.02,0h-29.31c-.34,0-.66-.17-.85-.46-.07-.1-.21-.39-.44-.86-2.41-4.99-9.75.01-6.21,4.34,1.93,2.36,6.09,1.05,8.57,1.05,10.99,0,21.2-.08,30.63-.22,1.42-.02,2.59-1.13,2.67-2.54.07-1.28-.05-2.76-.37-4.43-.82-4.3,1.75-6.61,5.83-6.55,3.57.06,6.97.18,10.2.37,3.21.19,5.92,2.15,8.14,5.88.15.25.23.54.23.83v1.76c0,1.25.9,2.33,2.13,2.54,5.74.97,8.31-7.31,1.23-7.97-.44-.04-.85-.28-1.11-.65-3.71-5.37-9.1-7.49-16.15-6.38-.35.06-.69-.19-.74-.54,0-.03,0-.07,0-.1ZM29.78,29.76c-.62-1.59-1.63-2.43-3.03-2.5-4.97-.26-6.21,5.35-1.94,7.43.18.09.38.14.58.13l11.44-.36c.41-.02.78.26.87.67,1.24,5.5,9.07,3.6,7.25-2.09-1.01-3.15-9.58-2.57-14.24-2.63-.41,0-.78-.26-.93-.65ZM74.08,36.42c0-2.11-1.71-3.82-3.82-3.82s-3.82,1.71-3.82,3.82,1.71,3.82,3.82,3.82,3.82-1.71,3.82-3.82Z"/>
    <path class="cls-1" d="M254.67,27.61c-.31-.22-.73-.15-.94.15-.04.05-.07.11-.09.17l-21.23,59.98c-.27.75-.92,1.3-1.71,1.42-4.79.75-9.83.91-15.11.47-3.08-.26-3.38-1.85-2.38-4.63,10.28-28.71,19.77-54.85,28.46-78.44,1.24-3.35,3.75-5,7.54-4.94,5.93.09,10.8.26,14.62.5,1.33.09,2.48.95,2.93,2.21,10.67,30.1,20.23,56.22,28.68,78.35.74,1.95.95,4.02.64,6.19-.06.47-.46.81-.93.82-3.28.03-8.29.03-15.02.02-2.37,0-3.21-1.02-4.01-3.26-1.54-4.33-3.19-8.93-4.94-13.79-.15-.42-.56-.7-1.01-.7h-19.96c-.51,0-.93-.42-.93-.93,0-.06,0-.13.02-.19l2.94-14.29c.12-.55.6-.95,1.17-.95h10.52c.41,0,.74-.33.74-.73,0-.09-.01-.17-.04-.25-4.2-11.67-9.12-26.59-9.96-27.18Z"/>
    <path class="cls-1" d="M377.22,85.5c.93,1.33.3,3.19-1.12,3.78-.15.07-1.15.19-2.99.36-4.9.47-11.78,1-16.13-1.27-.37-.19-.7-.47-.94-.81-11.34-15.83-19.81-29.02-25.42-39.55-1.3-2.45-1.07-5.03.69-7.74,7.05-10.83,14.87-22.81,23.45-35.92.46-.71,1.18-1.22,2.01-1.43,5.71-1.43,11.54-1.58,17.49-.46.31.06.6.19.85.39,1.79,1.37,1.25,3.06.08,4.81-14.85,22.04-23.09,34.27-24.71,36.7-.61.92-.6,2.13.03,3.04,1.53,2.21,10.43,14.91,26.71,38.1Z"/>
    <path class="cls-1" d="M535.96,61.18c-.03,15.97-13,28.9-28.97,28.87l-18.36-.03c-15.97-.03-28.9-13-28.87-28.97l.05-30.36c.03-15.97,13-28.9,28.97-28.87l18.36.03c15.97.03,28.9,13,28.87,28.97l-.05,30.36ZM517.22,32.82c-.09-7.48-6.23-13.46-13.7-13.37l-11.64.14c-7.48.09-13.46,6.23-13.37,13.7h0s.32,26.22.32,26.22c.09,7.48,6.23,13.46,13.7,13.37h0l11.64-.14c7.48-.09,13.46-6.23,13.37-13.7h0s-.32-26.22-.32-26.22Z"/>
    <path class="cls-1" d="M179.33,21.09c-.06,34.69-.05,56.65.04,65.87.01,1.76-.69,2.64-2.12,2.64-7.46-.01-12.08-.03-13.87-.04-2.11-.02-2.5-1.4-2.5-3.33-.01-20.22-.01-41.9,0-65.05,0-.47-.39-.85-.86-.85h0c-7.28-.01-14.76,0-22.43.01-2.74,0-4.12-1.1-4.14-3.31-.05-5.45-.02-9.5.08-12.14.08-2.35,2.32-2.68,4.32-2.68,22.97-.03,44.38-.02,64.21.03,1.77,0,2.66,1,2.69,2.99.06,4.45.09,8.04.08,10.76-.01,3.29-1.07,4.38-4.41,4.35-6.71-.06-13.5-.06-20.37.01-.4,0-.73.34-.73.74Z"/>
    <rect class="cls-1" x="308.06" y="2.25" width="19" height="87.44" rx="2.6" ry="2.6"/>
    <path class="cls-1" d="M407.41,37.31c.04.18.19.31.37.32,1.09.05,11.64.1,31.64.15,2.79,0,4.61.56,4.65,3.64.03,2.17.02,6.12-.04,11.84-.01,1.15-.94,2.07-2.09,2.07l-34.03-.12c-.36,0-.67.25-.74.61-1.35,7.17.96,16.54,9.94,16.9,7.9.31,15.53.32,22.9.02,2.28-.09,3.82.11,4.61.59,3.72,2.3,2.84,10.14,2.13,13.96-.06.32-.22.61-.45.83-1.03,1.01-2.11,1.53-3.26,1.56-4.53.13-11.84.25-21.95.36-17.39.19-30.83-4.34-31.74-24.29-.36-7.98-.45-19.46-.26-34.45.07-4.76.46-8.77,1.19-12.02,2.49-10.96,13.15-16.46,24.16-16.84,6.21-.21,16.19-.14,29.92.21,1.45.04,2.61,1.22,2.63,2.67.04,3.07.04,6.89,0,11.46,0,1.61-.72,2.7-2.15,3.28-.23.1-.49.15-.74.15-12.66.13-22.16.27-28.5.43-9.47.23-9.65,9.79-8.18,16.67Z"/>
    <path class="cls-1" d="M585.11,62.64c.53,0,1.07-.88,1.61-2.64,5.54-17.93,11.28-36.58,17.22-55.94.37-1.2,1.52-1.8,3.46-1.8,7.77,0,12.15,0,13.14-.02,2.22-.04,4.25.86,3.44,3.3-8.49,25.6-17.5,52.76-27.05,81.49-.48,1.44-1.5,2.21-3.06,2.31-2.89.19-5.8.28-8.71.29-2.91,0-5.81-.08-8.7-.26-1.56-.09-2.58-.86-3.07-2.29-9.66-28.69-18.78-55.82-27.37-81.39-.82-2.43,1.21-3.34,3.43-3.31.99.01,5.37,0,13.14-.03,1.94,0,3.09.59,3.46,1.78,6.02,19.34,11.83,37.97,17.44,55.88.55,1.76,1.09,2.64,1.62,2.63Z"/>
    <path class="cls-1" d="M651.5,37.4c.04.18.19.31.37.32,1.1.05,11.66.07,31.68.04,2.8-.01,4.62.54,4.67,3.62.04,2.18.04,6.13,0,11.86,0,1.15-.94,2.08-2.09,2.08h-34.07c-.36,0-.67.26-.74.62-1.32,7.18,1.02,16.55,10.02,16.88,7.91.29,15.55.27,22.92-.06,2.29-.1,3.83.09,4.62.57,3.73,2.29,2.88,10.14,2.18,13.97-.06.32-.21.61-.44.83-1.03,1.01-2.11,1.54-3.26,1.58-4.53.14-11.86.29-21.98.44-17.41.25-30.88-4.23-31.86-24.2-.39-7.99-.52-19.49-.39-34.5.05-4.76.43-8.77,1.15-12.03,2.45-10.99,13.1-16.53,24.12-16.95,6.22-.24,16.21-.21,29.96.1,1.45.03,2.61,1.21,2.64,2.66.05,3.08.07,6.9.04,11.47,0,1.61-.72,2.71-2.14,3.3-.24.1-.49.15-.75.15-12.67.17-22.18.35-28.53.53-9.48.27-9.62,9.84-8.13,16.72Z"/>
    <path class="cls-1" d="M723.26,20.31c-.25.02-.45.22-.45.47v65.42c0,2.46-1.19,3.43-3.6,3.41-4.71-.06-8.99-.06-12.85-.01-1.64.03-2.46-.68-2.46-2.13-.04-43.29-.04-70.63.01-82,0-2.5.88-2.74,3.23-2.86,10.46-.51,22.12-.6,34.99-.26,13.27.36,24.04,5.75,27.17,19.16.85,3.65,1,8.33.43,14.06-1.04,10.63-7.25,15.13-15.65,20.17-.6.36-.79,1.15-.43,1.74.02.03.04.06.06.09,6.1,8.47,12.66,17.56,19.68,27.27,2.53,3.5-1.47,4.95-4.26,4.98-4.85.04-9.56,0-14.15-.13-.64-.01-1.24-.31-1.63-.82-6.94-8.95-14.16-18.44-21.65-28.48-2.47-3.31-4.13-6.69-3.08-10.51,1.58-5.75,8.74-6.96,14.84-9.05,9.2-3.15,11.84-19.09-.53-20.17-6.64-.57-13.2-.69-19.67-.35Z"/>
    <path class="cls-1" d="M833.35,2.61c1.37.04,2.48,1.19,2.51,2.59.03,1.75.04,6.14.01,13.19,0,.9-.73,1.63-1.63,1.65-3.83.09-11.17.17-22.02.22-4.63.02-8.9.65-10.34,5.09-1.47,4.56,1.73,9.25,5.93,10.74,6.97,2.48,11.76,4.24,14.36,5.29,5.37,2.16,9.98,5.3,12.76,10.85,2.35,4.7,2,13.04,1.6,17.94-.81,10-8.33,16.68-18.12,18.85-2.15.48-5.73.75-10.74.82-7.78.1-16.57.07-22.97-.37-1.14-.07-2.05-1.01-2.08-2.16-.13-3.81-.11-7.56.04-11.23.08-2.08,2.39-3.06,4.47-3.02,4.64.08,12.14-.03,22.5-.32,4.35-.12,8.71-1.36,9.27-6.31.33-2.94-.04-6.69-3.07-7.72-5.98-2.03-12.56-4.5-19.73-7.43-6.61-2.7-10.7-7.45-12.25-14.26-4.34-18.99,4.72-33.88,25.03-34.41,8.12-.21,16.28-.21,24.47,0Z"/>
    <path class="cls-1" d="M22.29,8.62c.65-.67,2.98-1.63,7-2.87,3.95-1.23,7.63-.85,11.04,1.13.95.55,1.52,1.59,1.47,2.69l-.29,6.13c-.02.3-.1.58-.24.84-2.21,3.92-6.85.85-8.86-1.63-.59-.73-1.42-2.17-2.49-4.34-.47-.96-1.44-1.56-2.5-1.56h-4.97c-.13,0-.23-.11-.22-.24,0-.06.02-.11.06-.15Z"/>
    <path class="cls-1" d="M74.25,81.62c-.24.04-.4.27-.36.51.01.06.04.13.08.18,2.22,3.13,3.48,5.19,2.95,9.28-.04.34-.34.6-.68.6h-3.92c-.39,0-.72-.28-.78-.66l-.58-3.43c-.05-.33-.21-.63-.44-.86l-5.11-5.11c-.1-.1-.16-.23-.16-.37v-9.24c0-.35.29-.64.65-.64h31.98c.35,0,.66.2.81.51.35.75.09,1.69-.76,2.83-3.87,5.14-8.55,6.62-15.41,6.5-5.41-.09-8.16-.12-8.27-.1Z"/>
  </g>
</svg>